<svg width="150" height="150" viewBox="0 0 150 150" fill="none" xmlns="http://www.w3.org/2000/svg">
<path d="M150 17.8711V92.5781L141.211 101.367H9.58037L0 92.5781V17.8711C0 10.5759 5.88838 4.6875 13.1836 4.6875H136.816C144.112 4.6875 150 10.5759 150 17.8711Z" fill="#5A5A5A"/>
<path d="M150 17.8711V92.5781L141.211 101.367H75V4.6875H136.816C144.112 4.6875 150 10.5759 150 17.8711Z" fill="#444444"/>
<path d="M141.211 17.8711V101.367H8.78906V17.8711C8.78906 15.4099 10.7224 13.4766 13.1836 13.4766H136.816C139.278 13.4766 141.211 15.4099 141.211 17.8711Z" fill="#A8EBFA"/>
<path d="M141.211 17.8711V101.367H75V13.4766H136.816C139.278 13.4766 141.211 15.4099 141.211 17.8711Z" fill="#76E2F8"/>
<path d="M105.498 139.511H44.5023L53.2913 113.144C53.8187 111.387 55.4886 110.156 57.4219 110.156H92.5781C94.5114 110.156 96.1814 111.387 96.7087 113.144L105.498 139.511Z" fill="#5A5A5A"/>
<path d="M96.7087 113.144L105.498 139.511H75V110.156H92.5781C94.5114 110.156 96.1813 111.387 96.7087 113.144Z" fill="#444444"/>
<path d="M118.945 48.6328C111.676 48.6328 105.762 42.7189 105.762 35.4492C105.762 28.1795 111.676 22.2656 118.945 22.2656C126.215 22.2656 132.129 28.1795 132.129 35.4492C132.129 42.7189 126.215 48.6328 118.945 48.6328Z" fill="#FDBF00"/>
<path d="M123.34 79.3945V96.9727C123.34 99.4333 121.407 101.367 118.945 101.367H92.4902C95.3027 97.6755 96.9727 93.1934 96.9727 88.1836C96.9727 76.0547 87.1289 66.2109 75 66.2109C62.8711 66.2109 53.0273 76.0547 53.0273 88.1836C53.0273 93.1934 54.6973 97.6755 57.5098 101.367H31.0547C28.5935 101.367 26.6602 99.4333 26.6602 96.9727V79.3945C26.6602 76.9333 28.5935 75 31.0547 75H37.8226C38.262 73.6813 38.7894 72.4509 39.4046 71.2207L34.5706 66.3864C32.9007 64.7165 32.9007 61.9046 34.5706 60.2344L47.0508 47.7536C48.7207 46.0837 51.5332 46.0837 53.2031 47.7536L58.0371 52.5879C59.2676 51.9727 60.4978 51.4453 61.8164 51.0053V44.2383C61.8164 41.7771 63.7497 39.8438 66.2109 39.8438H83.7891C86.2503 39.8438 88.1836 41.7771 88.1836 44.2383V51.0056C89.5022 51.4453 90.7321 51.9727 91.9629 52.5882L96.7969 47.7539C98.4668 46.084 101.279 46.084 102.949 47.7539L115.429 60.2347C117.099 61.9046 117.099 64.7165 115.429 66.3867L110.596 71.2207C111.211 72.4509 111.738 73.6813 112.178 75H118.945C121.407 75 123.34 76.9333 123.34 79.3945Z" fill="#ECECF1"/>
<path d="M123.34 79.3945V96.9727C123.34 99.4333 121.407 101.367 118.945 101.367H92.4902C95.3027 97.6755 96.9727 93.1934 96.9727 88.1836C96.9727 76.0547 87.1289 66.2109 75 66.2109V39.8438H83.7891C86.2503 39.8438 88.1836 41.7771 88.1836 44.2383V51.0056C89.5022 51.4453 90.7321 51.9727 91.9629 52.5882L96.7969 47.7539C98.4668 46.084 101.279 46.084 102.949 47.7539L115.429 60.2347C117.099 61.9046 117.099 64.7165 115.429 66.3867L110.596 71.2207C111.211 72.4509 111.738 73.6813 112.178 75H118.945C121.407 75 123.34 76.9333 123.34 79.3945Z" fill="#E2E2E7"/>
<path d="M150 92.5781V105.762C150 113.056 144.112 118.945 136.816 118.945H13.1836C5.88838 118.945 0 113.056 0 105.762V92.5781H150Z" fill="#6E6E6E"/>
<path d="M150 92.5781V105.762C150 113.056 144.112 118.945 136.816 118.945H75V92.5781H150Z" fill="#5A5A5A"/>
<path d="M123.34 140.918C123.34 143.379 121.407 145.312 118.945 145.312H31.0547C28.5935 145.312 26.6602 143.379 26.6602 140.918C26.6602 138.457 28.5935 136.523 31.0547 136.523H118.945C121.407 136.523 123.34 138.457 123.34 140.918Z" fill="#6E6E6E"/>
<path d="M123.34 140.918C123.34 143.379 121.407 145.312 118.945 145.312H75V136.523H118.945C121.407 136.523 123.34 138.457 123.34 140.918Z" fill="#5A5A5A"/>
</svg>
