<svg width="130" height="130" viewBox="0 0 130 130" fill="none" xmlns="http://www.w3.org/2000/svg">
<g clip-path="url(#clip0)">
<path d="M119.167 0H10.8334C4.85316 0.00710938 0.00710938 4.85316 0 10.8334V119.167C0.00710938 125.147 4.85316 129.993 10.8334 130H119.167C125.147 129.993 129.993 125.147 130 119.167V10.8334C129.993 4.85316 125.147 0.00710938 119.167 0ZM125.667 119.167C125.667 122.756 122.757 125.667 119.167 125.667H10.8334C7.24369 125.667 4.33342 122.757 4.33342 119.167V21.6666H125.667V119.167H125.667ZM125.667 17.3334H4.33342V10.8334C4.33342 7.24369 7.24369 4.33342 10.8334 4.33342H119.167C122.757 4.33342 125.667 7.24369 125.667 10.8334V17.3334H125.667Z" fill="black"/>
<path d="M15.1666 8.6665H13C11.8034 8.6665 10.8334 9.63643 10.8334 10.8331C10.8334 12.0297 11.8034 12.9999 13 12.9999H15.1666C16.3633 12.9999 17.3332 12.03 17.3332 10.8333C17.3332 9.63668 16.3633 8.6665 15.1666 8.6665Z" fill="black"/>
<path d="M24.6566 8.83995C24.1335 8.60153 23.5328 8.60153 23.01 8.83995C22.7475 8.94989 22.5058 9.10375 22.295 9.29495C21.4571 10.1493 21.4571 11.5171 22.295 12.3715C22.5058 12.5627 22.7475 12.7166 23.01 12.8265C23.5346 13.0576 24.132 13.0576 24.6566 12.8265C24.9191 12.7166 25.1608 12.5627 25.3716 12.3715C26.2095 11.5171 26.2095 10.1493 25.3716 9.29495C25.1608 9.10375 24.9191 8.94989 24.6566 8.83995Z" fill="black"/>
<path d="M33.3308 8.81972C32.5178 8.48228 31.5814 8.66992 30.9616 9.29504C30.7704 9.50578 30.6165 9.7475 30.5066 10.01C30.2753 10.5346 30.2753 11.132 30.5066 11.6566C30.6165 11.9192 30.7704 12.1609 30.9616 12.3716C31.816 13.2095 33.1838 13.2095 34.0382 12.3716C34.2293 12.1609 34.3832 11.9192 34.4932 11.6566C34.6145 11.3994 34.6739 11.1176 34.6666 10.8332C34.6719 9.95316 34.1438 9.15717 33.3308 8.81972Z" fill="black"/>
<path d="M117 8.6665H43.3334C42.1367 8.6665 41.1668 9.63643 41.1668 10.8331C41.1668 12.0297 42.1367 12.9997 43.3334 12.9997H117C118.197 12.9997 119.167 12.0297 119.167 10.8331C119.167 9.63643 118.197 8.6665 117 8.6665Z" fill="black"/>
<path d="M66.6989 31.412H64.8589V37.944C54.6469 38.128 44.5269 42.912 44.5269 54.136C44.5269 66.28 55.1989 69.684 64.8589 71.708V102.896C57.4989 102.896 50.1389 99.584 46.0909 93.696L43.9749 94.616C48.7589 101.792 57.0389 105.012 64.8589 105.012V112.74H66.6989V105.012C76.9109 105.012 87.3989 99.124 87.3989 88.176C87.3989 75.664 77.0949 71.892 66.6989 69.776V40.152C73.5989 40.428 80.4069 43.28 83.6269 48.8L85.7429 47.972C81.8789 41.256 74.6109 38.22 66.6989 37.944V31.412ZM46.8269 54.136C46.8269 44.844 55.8429 40.336 64.8589 40.152V69.408C54.8309 67.2 46.8269 63.52 46.8269 54.136ZM84.8229 88.176C84.8229 97.836 75.3469 102.896 66.6989 102.896V72.076C76.3589 74.284 84.8229 77.688 84.8229 88.176Z" fill="#5CB3DF"/>
<path d="M66.6989 31.412H69.6989V28.412H66.6989V31.412ZM64.8589 31.412V28.412H61.8589V31.412H64.8589ZM64.8589 37.944L64.9129 40.9435L67.8589 40.8904V37.944H64.8589ZM64.8589 71.708H67.8589V69.2714L65.4741 68.7718L64.8589 71.708ZM64.8589 102.896V105.896H67.8589V102.896H64.8589ZM46.0909 93.696L48.563 91.9964L47.1622 89.9589L44.8947 90.9448L46.0909 93.696ZM43.9749 94.616L42.7787 91.8648L39.4888 93.2952L41.4787 96.2801L43.9749 94.616ZM64.8589 105.012H67.8589V102.012H64.8589V105.012ZM64.8589 112.74H61.8589V115.74H64.8589V112.74ZM66.6989 112.74V115.74H69.6989V112.74H66.6989ZM66.6989 105.012V102.012H63.6989V105.012H66.6989ZM66.6989 69.776H63.6989V72.2269L66.1005 72.7157L66.6989 69.776ZM66.6989 40.152L66.8188 37.1544L63.6989 37.0296V40.152H66.6989ZM83.6269 48.8L81.0355 50.3116L82.3292 52.5293L84.7201 51.5937L83.6269 48.8ZM85.7429 47.972L86.8361 50.7657L90.0808 49.496L88.3432 46.4759L85.7429 47.972ZM66.6989 37.944H63.6989V40.8412L66.5943 40.9422L66.6989 37.944ZM64.8589 40.152H67.8589V37.0902L64.7977 37.1526L64.8589 40.152ZM64.8589 69.408L64.2138 72.3378L67.8589 73.1404V69.408H64.8589ZM66.6989 102.896H63.6989V105.896H66.6989V102.896ZM66.6989 72.076L67.3674 69.1514L63.6989 68.3129V72.076H66.6989ZM66.6989 28.412H64.8589V34.412H66.6989V28.412ZM61.8589 31.412V37.944H67.8589V31.412H61.8589ZM64.8048 34.9445C59.3096 35.0435 53.5955 36.3752 49.1616 39.4294C44.6027 42.5697 41.5269 47.4659 41.5269 54.136H47.5269C47.5269 49.5821 49.5111 46.4743 52.5652 44.3706C55.7443 42.1808 60.1962 41.0285 64.9129 40.9435L64.8048 34.9445ZM41.5269 54.136C41.5269 61.3014 44.7733 66.0787 49.3893 69.2017C53.7946 72.1822 59.395 73.6283 64.2437 74.6442L65.4741 68.7718C60.6628 67.7637 56.0972 66.4958 52.7515 64.2322C49.6165 62.1113 47.5269 59.1146 47.5269 54.136H41.5269ZM61.8589 71.708V102.896H67.8589V71.708H61.8589ZM64.8589 99.896C58.3106 99.896 51.9584 96.9352 48.563 91.9964L43.6187 95.3956C48.3194 102.233 56.6872 105.896 64.8589 105.896V99.896ZM44.8947 90.9448L42.7787 91.8648L45.1711 97.3672L47.2871 96.4472L44.8947 90.9448ZM41.4787 96.2801C46.9494 104.486 56.296 108.012 64.8589 108.012V102.012C57.7817 102.012 50.5683 99.0978 46.471 92.9519L41.4787 96.2801ZM61.8589 105.012V112.74H67.8589V105.012H61.8589ZM64.8589 115.74H66.6989V109.74H64.8589V115.74ZM69.6989 112.74V105.012H63.6989V112.74H69.6989ZM66.6989 108.012C72.3333 108.012 78.1535 106.397 82.645 103.124C87.2084 99.7992 90.3989 94.7374 90.3989 88.176H84.3989C84.3989 92.5626 82.3454 95.9188 79.1117 98.2748C75.8063 100.683 71.2765 102.012 66.6989 102.012V108.012ZM90.3989 88.176C90.3989 80.9113 87.3221 75.9481 82.6925 72.6373C78.2681 69.4733 72.5537 67.9062 67.2972 66.8363L66.1005 72.7157C71.24 73.7618 75.8757 75.1387 79.2023 77.5177C82.3237 79.7499 84.3989 82.9287 84.3989 88.176H90.3989ZM69.6989 69.776V40.152H63.6989V69.776H69.6989ZM66.579 43.1496C72.8998 43.4024 78.5216 46.002 81.0355 50.3116L86.2182 47.2884C82.2922 40.558 74.298 37.4536 66.8188 37.1544L66.579 43.1496ZM84.7201 51.5937L86.8361 50.7657L84.6497 45.1783L82.5337 46.0063L84.7201 51.5937ZM88.3432 46.4759C83.7915 38.5646 75.3543 35.2441 66.8035 34.9458L66.5943 40.9422C73.8675 41.1959 79.9663 43.9474 83.1425 49.4681L88.3432 46.4759ZM69.6989 37.944V31.412H63.6989V37.944H69.6989ZM49.8269 54.136C49.8269 50.6209 51.4688 48.0415 54.155 46.205C56.9375 44.3028 60.8353 43.2347 64.9201 43.1514L64.7977 37.1526C59.8664 37.2533 54.7483 38.5312 50.7687 41.252C46.6929 44.0385 43.8269 48.3591 43.8269 54.136H49.8269ZM61.8589 40.152V69.408H67.8589V40.152H61.8589ZM65.504 66.4782C60.5817 65.3944 56.5809 64.0269 53.8479 62.0375C51.2967 60.1805 49.8269 57.7825 49.8269 54.136H43.8269C43.8269 59.8735 46.3591 64.0075 50.3168 66.8885C54.0929 69.6371 59.1081 71.2136 64.2138 72.3378L65.504 66.4782ZM81.8229 88.176C81.8229 91.8876 80.0517 94.7167 77.2563 96.72C74.3887 98.7752 70.492 99.896 66.6989 99.896V105.896C71.5538 105.896 76.7191 104.487 80.7514 101.597C84.8561 98.6553 87.8229 94.1244 87.8229 88.176H81.8229ZM69.6989 102.896V72.076H63.6989V102.896H69.6989ZM66.0304 75.0006C70.8165 76.0945 74.8189 77.3933 77.6089 79.4399C80.1905 81.3337 81.8229 83.9223 81.8229 88.176H87.8229C87.8229 81.9417 85.2233 77.5843 81.1578 74.6021C77.3009 71.7727 72.2413 70.2655 67.3674 69.1514L66.0304 75.0006Z" fill="#5CB3DF"/>
</g>
<defs>
<clipPath id="clip0">
<rect width="130" height="130" fill="white"/>
</clipPath>
</defs>
</svg>
