<svg width="150" height="150" viewBox="0 0 150 150" fill="none" xmlns="http://www.w3.org/2000/svg">
<path d="M78.2227 146.777C117.864 146.777 150 114.642 150 75C150 35.3585 117.864 3.22266 78.2227 3.22266C38.5811 3.22266 6.44531 35.3585 6.44531 75C6.44531 114.642 38.5811 146.777 78.2227 146.777Z" fill="#69CDFF"/>
<path d="M77.4698 105.038H54.4102V117.117H77.4698V105.038Z" fill="#445EA0"/>
<path d="M60.2233 105.038H54.4102V117.117H60.2233V105.038Z" fill="#2E4C89"/>
<path d="M92.8289 116.825H37.3711C36.549 116.825 35.8767 117.498 35.8767 118.32V125.811C35.8767 126.633 36.5493 127.306 37.3711 127.306H92.8289V116.825Z" fill="#293D7C"/>
<path d="M41.6898 125.811V118.319C41.6898 117.497 42.3624 116.825 43.1845 116.825H37.3711C36.549 116.825 35.8767 117.497 35.8767 118.319V125.811C35.8767 126.633 36.5493 127.306 37.3711 127.306H43.1842C42.3624 127.306 41.6898 126.633 41.6898 125.811Z" fill="#1A2B63"/>
<path d="M130.387 17.2747H1.49473C0.672656 17.2747 0 17.9473 0 18.7694V103.837C0 104.659 0.672656 105.332 1.49473 105.332H92.8289V60.5766C92.8289 59.446 93.7488 58.5258 94.8797 58.5258H131.882V18.7694C131.882 17.9473 131.209 17.2747 130.387 17.2747Z" fill="#293D7C"/>
<path d="M6.56134 90.3848C6.56134 90.8782 6.96476 91.2813 7.45812 91.2813H92.8289V60.5764C92.8289 59.4459 93.7488 58.5256 94.8797 58.5256H125.32V31.9329H6.56134V90.3848Z" fill="white"/>
<path d="M12.3747 90.3848V31.9329H6.56134V90.3848C6.56134 90.8782 6.96476 91.2813 7.45812 91.2813H13.2715C12.7781 91.2813 12.3747 90.8779 12.3747 90.3848Z" fill="#D9EAFC"/>
<path d="M65.9414 102.315C68.1701 102.315 69.9767 100.508 69.9767 98.2792C69.9767 96.0506 68.1701 94.2439 65.9414 94.2439C63.7127 94.2439 61.906 96.0506 61.906 98.2792C61.906 100.508 63.7127 102.315 65.9414 102.315Z" fill="#445EA0"/>
<path d="M92.8289 65.3748H77.1773C76.6939 65.3748 76.2984 65.7703 76.2984 66.2537V83.726C76.2984 84.2094 76.6939 84.6049 77.1773 84.6049H92.8289V65.3748Z" fill="#C3DDF4"/>
<path d="M82.1115 83.726V66.2537C82.1115 65.7703 82.507 65.3748 82.9904 65.3748H77.1773C76.6939 65.3748 76.2984 65.7703 76.2984 66.2537V83.726C76.2984 84.2094 76.6939 84.6049 77.1773 84.6049H82.9904C82.507 84.6049 82.1115 84.2094 82.1115 83.726Z" fill="#AEC1ED"/>
<path d="M94.8797 58.5257H108.537V39.3708C108.537 38.5652 107.878 37.906 107.072 37.906H24.8092C24.0035 37.906 23.3443 38.5652 23.3443 39.3708V58.8606C23.3443 59.6663 24.0035 60.3254 24.8092 60.3254H92.8462C92.9704 59.3129 93.8344 58.5257 94.8797 58.5257Z" fill="#C3DDF4"/>
<path d="M29.1574 58.8604V39.3706C29.1574 38.5649 29.8166 37.9058 30.6223 37.9058H24.8092C24.0035 37.9058 23.3443 38.5649 23.3443 39.3706V58.8604C23.3443 59.666 24.0035 60.3252 24.8092 60.3252H30.6223C29.8166 60.3252 29.1574 59.666 29.1574 58.8604Z" fill="#AEC1ED"/>
<path d="M124.424 24.8975H7.45812C6.96476 24.8975 6.56134 25.3009 6.56134 25.7945V32.2261H125.32V25.7945C125.32 25.3009 124.917 24.8975 124.424 24.8975Z" fill="#FFAF10"/>
<path d="M13.2715 24.8975H7.45812C6.96476 24.8975 6.56134 25.3009 6.56134 25.7945V32.2261H12.3744V25.7945C12.3747 25.3009 12.7781 24.8975 13.2715 24.8975Z" fill="#FF9518"/>
<path d="M50.2453 70.0134H25.5862C24.3727 70.0134 23.3889 69.0299 23.3889 67.8162C23.3889 66.6024 24.3727 65.6189 25.5862 65.6189H50.2453C51.4588 65.6189 52.4426 66.6024 52.4426 67.8162C52.4426 69.0299 51.4588 70.0134 50.2453 70.0134Z" fill="#5DC1D8"/>
<path d="M50.2453 77.1873H25.5862C24.3727 77.1873 23.3889 76.2038 23.3889 74.99C23.3889 73.7762 24.3727 72.7927 25.5862 72.7927H50.2453C51.4588 72.7927 52.4426 73.7762 52.4426 74.99C52.4426 76.2035 51.4588 77.1873 50.2453 77.1873Z" fill="#5DC1D8"/>
<path d="M50.2453 84.3611H25.5862C24.3727 84.3611 23.3889 83.3776 23.3889 82.1638C23.3889 80.95 24.3727 79.9666 25.5862 79.9666H50.2453C51.4588 79.9666 52.4426 80.95 52.4426 82.1638C52.4426 83.3776 51.4588 84.3611 50.2453 84.3611Z" fill="#5DC1D8"/>
<path d="M69.5976 70.0134H56.9045C55.691 70.0134 54.7072 69.0299 54.7072 67.8162C54.7072 66.6024 55.691 65.6189 56.9045 65.6189H69.5976C70.8111 65.6189 71.7949 66.6024 71.7949 67.8162C71.7949 69.0299 70.8111 70.0134 69.5976 70.0134Z" fill="#5DC1D8"/>
<path d="M69.5976 77.1873H56.9045C55.691 77.1873 54.7072 76.2038 54.7072 74.99C54.7072 73.7762 55.691 72.7927 56.9045 72.7927H69.5976C70.8111 72.7927 71.7949 73.7762 71.7949 74.99C71.7949 76.2035 70.8111 77.1873 69.5976 77.1873Z" fill="#5DC1D8"/>
<path d="M69.5976 84.3611H56.9045C55.691 84.3611 54.7072 83.3776 54.7072 82.1638C54.7072 80.95 55.691 79.9666 56.9045 79.9666H69.5976C70.8111 79.9666 71.7949 80.95 71.7949 82.1638C71.7949 83.3776 70.8111 84.3611 69.5976 84.3611Z" fill="#5DC1D8"/>
<path d="M147.656 58.2327C148.945 58.2327 150 59.2874 150 60.5764V131.407C150 132.697 148.945 133.751 147.656 133.751H94.8797C93.5906 133.751 92.5359 132.697 92.5359 131.407V60.5764C92.5359 59.2874 93.5906 58.2327 94.8797 58.2327H147.656Z" fill="#445EA0"/>
<path d="M98.8966 124.548C98.0909 124.548 97.4317 123.889 97.4317 123.083V64.2129C97.4317 63.4072 98.0909 62.748 98.8966 62.748H143.64C144.445 62.748 145.104 63.4072 145.104 64.2129V123.083C145.104 123.889 144.445 124.548 143.64 124.548H98.8966Z" fill="white"/>
<path d="M103.245 123.083V64.2129C103.245 63.4072 103.904 62.748 104.71 62.748H98.8966C98.0909 62.748 97.4317 63.4072 97.4317 64.2129V123.083C97.4317 123.889 98.0909 124.548 98.8966 124.548H104.71C103.904 124.548 103.245 123.889 103.245 123.083Z" fill="#D9EAFC"/>
<path d="M118.525 130.408C117.72 130.408 117.061 129.749 117.061 128.943V128.373C117.061 127.567 117.72 126.908 118.525 126.908H124.011C124.816 126.908 125.476 127.567 125.476 128.373V128.943C125.476 129.749 124.816 130.408 124.011 130.408H118.525Z" fill="#445EA0"/>
<path d="M145.104 68.4003V64.2129C145.104 63.4072 144.445 62.748 143.64 62.748H98.8966C98.0909 62.748 97.4317 63.4072 97.4317 64.2129V68.4003H145.104Z" fill="#FFAF10"/>
<path d="M104.71 62.748H98.8966C98.0909 62.748 97.4317 63.4072 97.4317 64.2129V68.4003H103.245V64.2129C103.245 63.4072 103.904 62.748 104.71 62.748Z" fill="#FF9518"/>
<path d="M131.254 95.1951H111.282C110.069 95.1951 109.085 94.2116 109.085 92.9978C109.085 91.784 110.069 90.8005 111.282 90.8005H131.254C132.467 90.8005 133.451 91.784 133.451 92.9978C133.451 94.2113 132.467 95.1951 131.254 95.1951Z" fill="#5DC1D8"/>
<path d="M131.254 101.97H111.282C110.069 101.97 109.085 100.987 109.085 99.7732C109.085 98.5597 110.069 97.5759 111.282 97.5759H131.254C132.467 97.5759 133.451 98.5597 133.451 99.7732C133.451 100.987 132.467 101.97 131.254 101.97Z" fill="#5DC1D8"/>
<path d="M131.254 108.745H111.282C110.069 108.745 109.085 107.762 109.085 106.548C109.085 105.335 110.069 104.351 111.282 104.351H131.254C132.467 104.351 133.451 105.335 133.451 106.548C133.451 107.762 132.467 108.745 131.254 108.745Z" fill="#5DC1D8"/>
<path d="M140.554 85.6223C140.554 86.4279 139.894 87.0871 139.089 87.0871H103.448C102.642 87.0871 101.983 86.4279 101.983 85.6223V73.5391C101.983 72.7334 102.642 72.0742 103.448 72.0742H139.089C139.894 72.0742 140.554 72.7334 140.554 73.5391V85.6223Z" fill="#C3DDF4"/>
<path d="M107.796 85.6223V73.5391C107.796 72.7334 108.455 72.0742 109.261 72.0742H103.448C102.642 72.0742 101.983 72.7334 101.983 73.5391V85.6223C101.983 86.4279 102.642 87.0871 103.448 87.0871H109.261C108.455 87.0871 107.796 86.4279 107.796 85.6223Z" fill="#AEC1ED"/>
<path d="M135.28 119.946C135.28 120.752 134.621 121.411 133.816 121.411H108.721C107.915 121.411 107.256 120.752 107.256 119.946V114.992C107.256 114.186 107.915 113.527 108.721 113.527H133.816C134.621 113.527 135.28 114.186 135.28 114.992V119.946Z" fill="#C3DDF4"/>
<path d="M113.069 119.946V114.992C113.069 114.186 113.728 113.527 114.534 113.527H108.721C107.915 113.527 107.256 114.186 107.256 114.992V119.946C107.256 120.752 107.915 121.411 108.721 121.411H114.534C113.728 121.411 113.069 120.752 113.069 119.946Z" fill="#AEC1ED"/>
</svg>
