<svg width="100" height="100" viewBox="0 0 100 100" fill="none" xmlns="http://www.w3.org/2000/svg">
<g clip-path="url(#clip0)">
<path d="M84.9658 86.5582C84.5607 86.5582 84.156 86.4037 83.8469 86.0949L69.5271 71.775C68.9093 71.1568 68.9093 70.1553 69.5271 69.5375C70.1454 68.9195 71.147 68.9201 71.7646 69.5375L86.0844 83.8574C86.7021 84.4756 86.7021 85.4772 86.0844 86.0951C85.7756 86.4037 85.3707 86.5582 84.9658 86.5582Z" fill="#365558"/>
<path d="M73.2734 12.5735C65.1654 4.46544 54.3851 0 42.9184 0C31.4518 0 20.6715 4.46544 12.5633 12.5735C-4.17442 29.3114 -4.17442 56.5458 12.5633 73.2837C20.6715 81.3916 31.4516 85.857 42.9184 85.857C54.3853 85.857 65.1654 81.3916 73.2736 73.2837C81.3818 65.1753 85.847 54.3952 85.847 42.9284C85.847 31.4616 81.3816 20.6817 73.2734 12.5735Z" fill="#2FC3EB"/>
<path d="M99.5268 90.1389L87.5937 78.2059C86.9756 77.5883 85.974 77.5883 85.356 78.2059L78.1961 85.3658C77.5781 85.984 77.5781 86.9856 78.1961 87.6033L90.1291 99.5364C90.4381 99.8452 90.8431 99.9996 91.248 99.9996C91.6529 99.9996 92.0578 99.8452 92.367 99.5364L99.5269 92.3764C100.144 91.7586 100.144 90.7569 99.5268 90.1389Z" fill="#9BAAAB"/>
<path d="M81.675 81.8872L78.1957 85.3665C77.5779 85.9847 77.5779 86.9862 78.1957 87.604L90.1287 99.5371C90.4377 99.8458 90.8428 100 91.2476 100C91.6525 100 92.0574 99.8458 92.3666 99.5371L95.8459 96.0577L81.675 81.8872Z" fill="#687F82"/>
<path d="M12.4637 12.6758C-4.17307 29.4219 -4.14065 56.5798 12.5633 73.2839C20.6715 81.3917 31.4516 85.8572 42.9184 85.8572C54.3374 85.8572 65.0749 81.4277 73.1714 73.3833L12.4637 12.6758Z" fill="#0295AA"/>
<path d="M64.691 21.1557C52.6857 9.15058 33.1516 9.15058 21.1461 21.1557C15.3305 26.9711 12.1276 34.7036 12.1276 42.9282C12.1276 51.1528 15.3305 58.8852 21.1459 64.7007C27.1485 70.7032 35.0335 73.7048 42.9182 73.7048C50.8032 73.7048 58.688 70.7034 64.6908 64.7007C76.6961 52.6952 76.6961 33.1612 64.691 21.1557Z" fill="#E6EAEA"/>
<path d="M21.0463 21.2583C15.2946 27.0622 12.1276 34.7519 12.1276 42.9287C12.1276 51.1533 15.3305 58.8857 21.1459 64.7012C27.1485 70.7037 35.0335 73.7053 42.9182 73.7053C50.7589 73.7053 58.5985 70.7363 64.5886 64.8008L21.0463 21.2583Z" fill="#CDD4D5"/>
<path d="M77.9363 44.5113C77.0623 44.5113 76.3543 43.8031 76.3543 42.9291C76.3543 38.4496 75.4916 34.1121 73.7898 30.0378C73.4531 29.2316 73.8338 28.3048 74.64 27.9679C75.4468 27.631 76.373 28.0118 76.7097 28.8181C78.5734 33.2808 79.5185 38.0285 79.5185 42.9291C79.5183 43.8033 78.8103 44.5113 77.9363 44.5113Z" fill="white"/>
<path d="M71.4986 24.2603C71.0038 24.2603 70.5169 24.029 70.2081 23.5956C69.123 22.0712 67.896 20.6214 66.5609 19.2863C60.2458 12.971 51.8493 9.49307 42.9183 9.49307C42.0444 9.49307 41.336 8.78487 41.336 7.91084C41.336 7.03682 42.0444 6.32861 42.9183 6.32861C52.6946 6.32861 61.8855 10.1357 68.7986 17.0484C70.2577 18.5077 71.5994 20.0931 72.7863 21.7601C73.2927 22.472 73.1265 23.4599 72.4148 23.9667C72.1367 24.165 71.816 24.2603 71.4986 24.2603Z" fill="white"/>
<path d="M30.9034 30.377H23.3092C22.4354 30.377 21.727 31.0852 21.727 31.9592V53.0543C21.727 53.9284 22.4354 54.6366 23.3092 54.6366H30.9034C31.7772 54.6366 32.4856 53.9284 32.4856 53.0543V31.959C32.4856 31.0852 31.7772 30.377 30.9034 30.377Z" fill="#9BAAAB"/>
<path d="M46.0919 32.9082H38.4977C37.6239 32.9082 36.9155 33.6164 36.9155 34.4904V53.0541C36.9155 53.9282 37.6239 54.6364 38.4977 54.6364H46.0919C46.9657 54.6364 47.6741 53.9282 47.6741 53.0541V34.4904C47.6741 33.6162 46.9657 32.9082 46.0919 32.9082Z" fill="#F0353D"/>
<path d="M61.2804 25.314H53.6862C52.8122 25.314 52.104 26.0222 52.104 26.8962V53.0541C52.104 53.9281 52.8122 54.6363 53.6862 54.6363H61.2804C62.1544 54.6363 62.8624 53.9281 62.8624 53.0541V26.8962C62.8626 26.0222 62.1544 25.314 61.2804 25.314Z" fill="#FF8C29"/>
<path d="M64.6556 54.6364H19.934C19.0602 54.6364 18.3518 53.9282 18.3518 53.0542C18.3518 52.1802 19.0602 51.4722 19.934 51.4722H64.6558C65.5298 51.4722 66.2378 52.1804 66.2378 53.0542C66.2378 53.928 65.5296 54.6364 64.6556 54.6364Z" fill="#365558"/>
</g>
<defs>
<clipPath id="clip0">
<rect width="100" height="100" fill="white"/>
</clipPath>
</defs>
</svg>
