<svg width="100" height="100" viewBox="0 0 100 100" fill="none" xmlns="http://www.w3.org/2000/svg">
<g clip-path="url(#clip0)">
<path d="M78.6915 41.3881V3.39502H21.3083V41.3881H-7.62939e-06L50.0001 96.605L100 41.3881H78.6915Z" fill="#2FC3EB"/>
<path d="M100 41.3881H78.6915V3.39502H49.9999V96.605L100 41.3881Z" fill="#24AFD5"/>
<path d="M59.5683 51.5654C59.444 48.6675 58.4427 46.7248 56.2261 45.074C54.837 44.0221 54.0193 43.5974 52.4593 42.8177L50.3395 41.7183C49.9699 41.516 49.513 41.202 48.9359 40.8049L48.88 40.7665C47.8624 39.9716 47.6625 39.2807 47.6625 38.3596C47.6625 36.9835 48.7111 35.8642 50.0001 35.8642C51.3592 35.8642 52.372 36.2665 53.5269 38.3239L54.0351 39.2291L58.4414 36.3742L58.0441 35.5924C56.8266 33.1962 55.0873 31.6576 52.8667 31.0084V27.4106H47.7644V30.979C44.4768 31.9909 42.2445 35.0324 42.2445 38.6358C42.2445 40.9995 43 42.7717 44.6335 44.2232C46.0963 45.4832 47.1918 46.1532 49.5023 47.2033C52.9783 48.8588 54.1514 49.9902 54.1514 51.6862C54.1514 52.7634 53.8673 53.6569 53.3194 54.327C52.6017 55.169 51.6474 55.5614 50.3155 55.5614C47.8067 55.5614 46.4113 54.0906 45.3384 50.316L44.9892 49.0877L40.3119 51.9185L40.4508 52.5924C41.2781 56.6051 44.0453 59.5753 47.7642 60.5187V64.0545H52.8665V60.4887C54.5445 60.0756 55.9943 59.2084 57.1816 57.906C58.7658 56.1895 59.569 54.0704 59.569 51.6071L59.5683 51.5654Z" fill="#F0E645"/>
<path d="M50.0001 35.8642C51.3592 35.8642 52.372 36.2665 53.5269 38.3239L54.035 39.2291L58.4413 36.3742L58.0441 35.5924C56.8266 33.1962 55.0873 31.6576 52.8666 31.0084V27.4106H50.0001V35.8642Z" fill="#F8C93B"/>
<path d="M59.5682 51.5656C59.4439 48.6677 58.4427 46.725 56.2261 45.0742C54.837 44.0223 54.0192 43.5976 52.4592 42.8179L50.3395 41.7185C50.2339 41.6608 50.1205 41.593 49.9999 41.5176V47.4451C53.0897 48.9718 54.1511 50.0742 54.1511 51.6862C54.1511 52.7634 53.8671 53.6569 53.3192 54.327C52.6015 55.169 51.6472 55.5614 50.3153 55.5614C50.2078 55.5614 50.1032 55.5577 49.9997 55.5522V64.0547H52.8662V60.4889C54.5443 60.0758 55.9941 59.2086 57.1814 57.9062C58.7655 56.1897 59.5688 54.0706 59.5688 51.6073L59.5682 51.5656Z" fill="#F8C93B"/>
</g>
<defs>
<clipPath id="clip0">
<rect width="100" height="100" fill="white"/>
</clipPath>
</defs>
</svg>
