<svg width="100" height="100" viewBox="0 0 100 100" fill="none" xmlns="http://www.w3.org/2000/svg">
<path d="M73.7288 8.47461H26.2712V83.0509H73.7288V8.47461Z" fill="#107D9A"/>
<path d="M65.2542 22.0341V23.729H66.9491V76.2713H33.0508V59.3222H41.5254V57.6273C41.5254 57.4578 41.5254 57.3052 41.5085 57.1357C41.2542 53.6273 38.322 50.8476 34.7458 50.8476H33.0508V15.2544H66.9491V17.5595C65.8983 18.7629 65.2542 20.3222 65.2542 22.0341Z" fill="#2FC3EB"/>
<path d="M44.9153 22.0337C44.9153 24.842 42.6388 27.1184 39.8305 27.1184V35.593C45.7214 30.6839 54.2786 30.6839 60.1695 35.593V27.1184C57.3612 27.1184 55.0847 24.842 55.0847 22.0337H44.9153Z" fill="#107D9A"/>
<path d="M60.1695 55.9321V64.4067C58.7627 64.4067 57.4915 64.983 56.5763 65.8982C55.661 66.8135 55.0847 68.0847 55.0847 69.4914H44.9153C44.9153 66.6779 42.6441 64.4067 39.8305 64.4067V59.322H41.5254V57.627C41.5254 57.4576 41.5254 57.305 41.5085 57.1355C44.1017 58.7965 47.0508 59.627 50 59.627C53.6102 59.627 57.2203 58.3898 60.1695 55.9321Z" fill="#107D9A"/>
<path d="M61.8644 44.0677H60.1695V40.6778C60.1695 39.7418 59.4106 38.9829 58.4746 38.9829H50C49.064 38.9829 48.3051 39.7418 48.3051 40.6778V49.1524H43.2203V42.3727H44.9153V38.9829H41.5254C40.5894 38.9829 39.8305 39.7418 39.8305 40.6778V44.0677H38.1356V47.4575H39.8305V50.8473C39.8305 51.7833 40.5894 52.5422 41.5254 52.5422H50C50.936 52.5422 51.6949 51.7833 51.6949 50.8473V42.3727H56.7797V49.1524H55.0847V52.5422H58.4746C59.4106 52.5422 60.1695 51.7833 60.1695 50.8473V47.4575H61.8644V44.0677Z" fill="#107D9A"/>
<path d="M58.4746 8.47458H55.0847V3.38983H44.9153V8.47458H41.5254V1.69492C41.5254 0.758898 42.2843 0 43.2203 0H56.7797C57.7157 0 58.4746 0.758898 58.4746 1.69492V8.47458Z" fill="#3F708D"/>
<path d="M73.7288 15.2544H72.0339C70 15.2544 68.1864 16.1527 66.9492 17.5595C65.8983 18.7629 65.2542 20.3222 65.2542 22.0341V23.729H88.9831V15.2544H73.7288Z" fill="#FE946F"/>
<path d="M88.9831 6.77957H85.5932L80.5085 1.69482H68.6441L61.8644 8.47449H73.7288V15.2541H88.9831V6.77957Z" fill="#FFB398"/>
<path d="M99.1525 15.2544H88.9831V23.729H99.1525V15.2544Z" fill="#E15D2D"/>
<path d="M99.1525 6.77979H88.9831V15.2544H99.1525V6.77979Z" fill="#F88756"/>
<path d="M50 91.5254L58.4746 100H88.9831V91.5254H50Z" fill="#FE946F"/>
<path d="M88.9831 83.0507H82.2034V74.5762H80.5085C76.7642 74.5762 73.7288 77.6116 73.7288 81.3558V83.0507H50V91.5253H88.9831V83.0507Z" fill="#FFB398"/>
<path d="M99.1525 83.0508H88.9831V91.5254H99.1525V83.0508Z" fill="#F88756"/>
<path d="M99.1525 91.5254H88.9831V100H99.1525V91.5254Z" fill="#E15D2D"/>
<path d="M33.0508 50.8474V37.2881H26.2712L21.1864 42.3728H12.7119V50.8474H33.0508Z" fill="#FFB398"/>
<path d="M41.5085 57.1358C41.2542 53.6273 38.322 50.8477 34.7458 50.8477H33.0508H12.7119V59.3222H41.5254V57.6273C41.5254 57.4578 41.5254 57.3053 41.5085 57.1358Z" fill="#FE946F"/>
<path d="M12.7118 42.373H0.847443V50.8476H12.7118V42.373Z" fill="#3F708D"/>
<path d="M12.7118 50.8477H0.847443V59.3222H12.7118V50.8477Z" fill="#2E5166"/>
</svg>
