<svg width="100" height="100" viewBox="0 0 100 100" fill="none" xmlns="http://www.w3.org/2000/svg">
<path d="M50 99.9773C77.608 99.9773 99.9887 77.5966 99.9887 49.9887C99.9887 22.3807 77.608 0 50 0C22.392 0 0.011322 22.3807 0.011322 49.9887C0.011322 77.5966 22.392 99.9773 50 99.9773Z" fill="#107D9A"/>
<path d="M31.8258 39.4493L20.7219 48.4495L35.2307 62.9583L13.8469 65.4307L48.4381 99.9784C48.9586 100 49.4791 100 49.9996 100C74.593 100 95.0225 82.2381 99.208 58.8592L73.9857 33.6374C69.3012 29.7987 49.0887 11.0393 26.0135 33.6374L31.8475 39.4713L31.8258 39.4493Z" fill="#149DC1"/>
<path d="M67.2627 54.7821H67.7181L70.3422 53.3507L70.776 51.6808C70.147 51.0519 69.5179 49.9892 68.9107 48.6663C68.8674 48.6663 68.824 48.688 68.759 48.688C68.065 48.688 67.3709 47.9288 67.2191 46.9964C67.089 46.2589 67.3492 45.6517 67.783 45.4132C67.1974 42.4204 66.807 37.8444 71.9469 36.7165C75.0263 36.0442 76.1326 38.4081 76.2627 38.6685C78.1279 37.6274 79.3205 39.189 79.6242 40.0132C80.1664 41.5097 79.9929 44.3073 79.7109 45.5435C80.0146 45.8472 80.1664 46.3677 80.0797 46.9749C79.9279 47.8859 79.2554 48.6232 78.5832 48.6665C78.041 49.881 77.3035 50.9003 76.5445 51.6593L76.9783 53.3292H77.0217L79.559 54.7607H80.0361C83.3976 54.7607 86.1517 57.4064 86.1517 60.6163V65.3659H61.1469V60.6161C61.1469 57.3847 63.9012 54.7605 67.2625 54.7605V54.7821H67.2627Z" fill="#EDEDED"/>
<path d="M73.6603 36.6516C75.4605 36.9553 76.176 38.4734 76.2844 38.6902C78.1496 37.6492 79.3422 39.2107 79.6459 40.035C80.1881 41.5314 80.0146 44.3291 79.7326 45.5652C80.0363 45.8689 80.1881 46.3895 80.1014 46.9967C79.9496 47.9076 79.2771 48.6449 78.6049 48.6883C78.0627 49.9027 77.3252 50.9221 76.5662 51.6811L77 53.351H77.0434L79.5807 54.7824H80.0578C83.4193 54.7824 86.1734 57.4281 86.1734 60.6381V65.3877H73.6816V36.6514H73.6603V36.6516Z" fill="#E3E3E3"/>
<path d="M19.941 54.7821H20.3965L23.0205 53.3507L23.4543 51.6808C22.8254 51.0519 22.1963 49.9892 21.5891 48.6663C21.5457 48.6663 21.5023 48.688 21.4373 48.688C20.7434 48.688 20.0709 47.9288 19.8975 46.9964C19.7674 46.2589 20.0275 45.6517 20.4613 45.4132C19.8758 42.4204 19.4854 37.8444 24.6252 36.7165C27.7047 36.0442 28.8109 38.4081 28.941 38.6685C30.8062 37.6274 31.9988 39.189 32.3025 40.0132C32.8447 41.5097 32.6713 44.3073 32.3893 45.5435C32.693 45.8472 32.8447 46.3677 32.758 46.9749C32.6062 47.8859 31.9338 48.6232 31.2615 48.6665C30.7193 49.881 29.9818 50.9003 29.223 51.6593L29.6568 53.3292H29.7002L32.2375 54.7607H32.7146C36.0762 54.7607 38.8303 57.4064 38.8303 60.6163V65.3659H13.8252V60.6161C13.8252 57.3847 16.5795 54.7605 19.9408 54.7605C19.941 54.7605 19.941 54.7821 19.941 54.7821Z" fill="#EFEFF0"/>
<path d="M26.3389 36.6516C28.1391 36.9553 28.8545 38.4734 28.9629 38.6902C30.8281 37.6492 32.0207 39.2107 32.3244 40.035C32.8666 41.5314 32.6932 44.3291 32.4112 45.5652C32.7149 45.8689 32.8666 46.3895 32.7799 46.9967C32.6281 47.9076 31.9557 48.6449 31.2834 48.6883C30.7412 49.9027 30.0037 50.9221 29.2449 51.6811L29.6787 53.351H29.7221L32.2594 54.7824H32.7365C36.0981 54.7824 38.8522 57.4281 38.8522 60.6381V65.3877H26.3604V36.6514H26.3389V36.6516Z" fill="#E3E3E3"/>
<path d="M42.626 54.3481H43.1465L46.1609 52.6999L46.6598 50.7696C45.9441 50.0323 45.2066 48.8177 44.5129 47.2997C44.4479 47.2997 44.4045 47.3214 44.3395 47.3214C43.5369 47.3214 42.7563 46.4538 42.5609 45.3694C42.4309 44.5235 42.691 43.8079 43.2115 43.5476C42.5393 40.0993 42.0838 34.8075 48.0262 33.5065C51.5828 32.7257 52.8625 35.4802 53.0143 35.762C55.1611 34.5476 56.5492 36.3692 56.8963 37.3235C57.5252 39.0587 57.3301 42.2899 57.0047 43.7212C57.3518 44.0683 57.5469 44.6755 57.4168 45.3694C57.2434 46.4321 56.4625 47.278 55.6816 47.3214C55.0527 48.7095 54.2068 49.902 53.3395 50.7696L53.8383 52.6999H53.8816L56.8094 54.3481H57.3733C61.2553 54.3481 64.4215 57.4059 64.4215 61.1145V66.6015H35.5561V61.1145C35.5561 57.3843 38.7223 54.3481 42.6043 54.3481H42.626Z" fill="#FFD630"/>
<path d="M49.9996 33.4204C52.0815 33.7675 52.9057 35.5239 53.0358 35.7626C55.1826 34.5481 56.5707 36.3698 56.9178 37.3241C57.5467 39.0593 57.3516 42.2905 57.0262 43.7218C57.3733 44.0688 57.5684 44.6761 57.4383 45.37C57.2649 46.4327 56.484 47.2786 55.7031 47.322C55.0742 48.7101 54.2283 49.9026 53.3609 50.7702L53.8598 52.7005H53.9031L56.8526 54.3487H57.4164C61.2985 54.3487 64.4647 57.4065 64.4647 61.1151V66.6021H50.0211V33.4204H49.9996Z" fill="#FACD1B"/>
<path d="M49.9996 21.3188C58.1541 21.3188 65.5494 24.637 70.9062 29.9722C72.034 31.0999 73.0531 32.3144 73.9857 33.5938H69.6266C69.2578 33.1817 68.8893 32.7696 68.4771 32.3794C63.7492 27.6515 57.1998 24.7237 49.9779 24.7237C42.7561 24.7237 36.2065 27.6515 31.4787 32.3794C31.0883 32.7698 30.6979 33.1819 30.3293 33.5938H25.9701C26.9027 32.3142 27.9438 31.0999 29.0496 29.9722C34.4064 24.6153 41.8018 21.3188 49.9562 21.3188H49.9996ZM73.9857 68.1634C73.0531 69.4431 72.0123 70.6573 70.9062 71.7851C65.5494 77.1419 58.1541 80.4384 49.9996 80.4384C41.8451 80.4384 34.4498 77.1202 29.093 71.7851C27.9652 70.6573 26.9461 69.4429 26.0135 68.1634H30.3727C30.7414 68.5755 31.1102 68.9876 31.5221 69.3778C36.25 74.1058 42.7994 77.0335 50.0213 77.0335C57.2432 77.0335 63.7928 74.1058 68.5205 69.3778C68.9109 68.9874 69.3014 68.5753 69.6699 68.1634H74.0291H73.9857Z" fill="#FFD630"/>
</svg>
