<svg width="100" height="100" viewBox="0 0 100 100" fill="none" xmlns="http://www.w3.org/2000/svg">
<path d="M75 43.9344V17.45L57.5437 0H0V100H75V99.8156C89.0594 98.2531 99.9938 86.3469 100 71.875C99.9938 57.3937 89.0594 45.4875 75 43.9344ZM56.2437 7.54063L67.4563 18.75H56.2437V7.54063ZM6.25 93.75V6.24375H50V24.9969H68.75V43.9344C63.275 44.5406 58.275 46.7156 54.2125 50H12.5V56.25H48.4906C47.2031 58.175 46.1688 60.2781 45.3844 62.5H12.5V68.75H43.9344C43.8187 69.7781 43.75 70.8156 43.75 71.875C43.75 80.7156 47.8375 88.6 54.2188 93.75H6.25ZM71.875 93.3844C59.9969 93.3562 50.3875 83.7469 50.3594 71.875C50.3875 59.9969 59.9969 50.3875 71.875 50.3594C83.7469 50.3875 93.3562 59.9969 93.3844 71.875C93.3562 83.7469 83.7469 93.3562 71.875 93.3844Z" fill="black"/>
<path d="M62.5 37.5H12.5V43.75H62.5V37.5Z" fill="black"/>
<path d="M75.0063 68.75V56.25H68.75V68.75H56.25V75H68.75V87.5H75.0063V75H87.5V68.75H75.0063Z" fill="#2FC3EB"/>
<path d="M56.3059 18.6931L56.386 7.69092L67.3081 18.625L56.3059 18.6931Z" fill="#2FC3EB"/>
</svg>
