<svg width="100" height="100" viewBox="0 0 100 100" fill="none" xmlns="http://www.w3.org/2000/svg">
<g clip-path="url(#clip0)">
<path fill-rule="evenodd" clip-rule="evenodd" d="M68.3357 20.9023L72.5563 16.6817L83.5121 27.6375L79.2915 31.8581C81.3072 35.0708 82.8094 38.6391 83.6823 42.4469H89.6461V50.1938C52.8297 50.1938 47.1703 50.1938 10.3539 50.1938V42.4469H16.3177C17.1898 38.6383 18.6935 35.0708 20.7085 31.8581L16.4879 27.6375L27.4437 16.6817L31.6643 20.9023C34.877 18.8866 38.4453 17.3843 42.2531 16.5115V10.5469H57.7469V16.5108C61.5547 17.3843 65.1222 18.8866 68.3357 20.9023Z" fill="#107D9A"/>
<path fill-rule="evenodd" clip-rule="evenodd" d="M68.309 50.193C68.309 40.0818 60.112 31.8848 50 31.8848C39.8888 31.8848 31.691 40.0818 31.691 50.193H68.309Z" fill="white"/>
<path fill-rule="evenodd" clip-rule="evenodd" d="M98.0469 48.2399H91.5993V42.4469C91.5993 41.3681 90.7249 40.4938 89.6461 40.4938H85.2036C84.4032 37.5824 83.2458 34.7916 81.749 32.1625L84.893 29.0184C85.2592 28.6522 85.4652 28.1548 85.4652 27.6375C85.4652 27.1194 85.2592 26.6228 84.893 26.2558L73.9372 15.3C73.175 14.5378 71.9383 14.5378 71.1754 15.3L68.0305 18.4448C65.4015 16.9472 62.6099 15.7898 59.7 14.9895V10.5469C59.7 9.46808 58.8257 8.59375 57.7469 8.59375H42.2531C41.1743 8.59375 40.3 9.46808 40.3 10.5469V14.9895C37.3894 15.7898 34.5978 16.9472 31.9687 18.4448L28.8246 15.3C28.0617 14.5378 26.825 14.5378 26.062 15.3L15.1062 26.2558C14.74 26.622 14.534 27.1187 14.534 27.6367C14.534 28.1548 14.74 28.6514 15.1062 29.0176L18.251 32.1625C16.7526 34.7931 15.5952 37.5847 14.7957 40.493H10.3539C9.27505 40.493 8.40073 41.3681 8.40073 42.4461V48.2399H1.95312C0.874328 48.2399 0 49.115 0 50.193C0 51.2718 0.874328 52.1461 1.95312 52.1461H42.1875C43.2663 52.1461 44.1406 51.2718 44.1406 50.193C44.1406 49.115 43.2663 48.2399 42.1875 48.2399H33.7654C34.7343 40.1398 41.6428 33.8379 50 33.8379C58.3572 33.8379 65.2657 40.1398 66.2346 48.2399H57.8125C56.7337 48.2399 55.8594 49.115 55.8594 50.193C55.8594 51.2718 56.7337 52.1461 57.8125 52.1461H98.0469C99.1257 52.1461 100 51.2718 100 50.193C100 49.115 99.1257 48.2399 98.0469 48.2399ZM50 29.9316C39.4867 29.9316 30.8182 37.9814 29.8325 48.2399H12.307V44.4H16.3177C17.2287 44.4 18.0183 43.7706 18.222 42.8825C19.0315 39.3456 20.4254 35.9856 22.3633 32.8957C22.847 32.1243 22.7341 31.1203 22.0901 30.4764L19.2497 27.6367L27.4437 19.4435L30.2834 22.2832C30.928 22.9271 31.9313 23.04 32.7026 22.5563C35.7895 20.6192 39.1495 19.2261 42.6895 18.4143C43.5768 18.2114 44.2062 17.4217 44.2062 16.5108V12.5H55.7938V16.5108C55.7938 17.4217 56.4232 18.2114 57.3105 18.4151C60.8498 19.2261 64.2105 20.62 67.2981 22.5563C68.0695 23.0408 69.0727 22.9271 69.7166 22.2832L72.5563 19.4435L80.7503 27.6375L77.9106 30.4764C77.2667 31.1211 77.153 32.1243 77.6375 32.8957C79.5738 35.9825 80.9669 39.3425 81.7787 42.8833C81.9817 43.7706 82.7713 44.4 83.6823 44.4H87.6938V48.2407H70.1675C69.1818 37.9814 60.5133 29.9316 50 29.9316Z" fill="black"/>
<path fill-rule="evenodd" clip-rule="evenodd" d="M19.6663 63.2561H23.7862C26.0979 63.2561 27.9778 65.1367 27.9778 67.4485C27.9778 68.5265 28.8528 69.4016 29.9309 69.4016C31.0097 69.4016 31.884 68.5265 31.884 67.4485C31.884 62.983 28.2516 59.3499 23.7862 59.3499H19.6663C15.2008 59.3499 11.5677 62.983 11.5677 67.4485V82.3922C11.5677 86.8576 15.2008 90.4908 19.6663 90.4908H23.7862C28.2516 90.4908 31.884 86.8576 31.884 82.3922C31.884 81.3141 31.0097 80.439 29.9309 80.439C28.8528 80.439 27.9778 81.3141 27.9778 82.3922C27.9778 84.7039 26.0979 86.5845 23.7862 86.5845H19.6663C17.3546 86.5845 15.4739 84.7039 15.4739 82.3922V67.4485C15.4739 65.1367 17.3546 63.2561 19.6663 63.2561Z" fill="black"/>
<path fill-rule="evenodd" clip-rule="evenodd" d="M63.4544 59.7411C62.5954 59.5168 61.692 59.8998 61.2579 60.6749L51.0941 78.7925L40.9302 60.6749C40.4953 59.8998 39.592 59.516 38.7329 59.7411C37.8731 59.9654 37.2734 60.7421 37.2734 61.6309V88.2094C37.2734 89.2882 38.1477 90.1625 39.2265 90.1625C40.3053 90.1625 41.1797 89.2882 41.1797 88.2094V69.1039L49.3904 83.7401C49.736 84.3558 50.3868 84.7373 51.0933 84.7373C51.7998 84.7373 52.4513 84.3558 52.7969 83.7401L61.0077 69.1039V88.2094C61.0077 89.2882 61.882 90.1625 62.9608 90.1625C64.0396 90.1625 64.9139 89.2882 64.9139 88.2094V61.6309C64.9139 60.7421 64.3143 59.9654 63.4544 59.7411Z" fill="black"/>
<path fill-rule="evenodd" clip-rule="evenodd" d="M79.2404 72.9676C76.326 72.9676 73.9548 70.5963 73.9548 67.6812C73.9548 64.7667 76.326 62.3955 79.2404 62.3955C80.9448 62.3955 82.5539 63.2248 83.5464 64.6141C84.1728 65.4923 85.3928 65.6952 86.2701 65.0688C87.1483 64.4417 87.352 63.2225 86.7249 62.3444C85.0014 59.9305 82.2037 58.4893 79.2404 58.4893C74.1722 58.4893 70.0485 62.6129 70.0485 67.6812C70.0485 72.7501 74.1722 76.8738 79.2404 76.8738C82.1548 76.8738 84.5261 79.2443 84.5261 82.1587C84.5261 85.0739 82.1548 87.4451 79.2404 87.4451C77.269 87.4451 75.4745 86.3594 74.5567 84.6131C74.0555 83.6579 72.8745 83.2909 71.92 83.7921C70.9648 84.2942 70.5971 85.4744 71.0991 86.4296C72.6936 89.4654 75.8133 91.3513 79.2404 91.3513C84.3086 91.3513 88.4323 87.2277 88.4323 82.1587C88.4323 77.0905 84.3086 72.9676 79.2404 72.9676Z" fill="black"/>
<path fill-rule="evenodd" clip-rule="evenodd" d="M51.9531 50.1931C51.9531 49.1181 51.0757 48.24 50 48.24C48.9243 48.24 48.0469 49.1181 48.0469 50.1931C48.0469 51.2689 48.9243 52.1462 50 52.1462C51.0757 52.1462 51.9531 51.2689 51.9531 50.1931Z" fill="black"/>
</g>
<defs>
<clipPath id="clip0">
<rect width="100" height="100" fill="white"/>
</clipPath>
</defs>
</svg>
