<svg width="100" height="100" viewBox="0 0 100 100" fill="none" xmlns="http://www.w3.org/2000/svg">
<path d="M62.924 95.7808C61.192 94.4558 61.006 92.4651 61.006 92.4651L60.356 88.1436H39.642L38.99 92.4619C38.99 92.4619 38.809 94.4547 37.076 95.7798C35.344 97.1048 33.977 98.2427 35.344 98.4361C36.661 98.6212 49.084 98.4528 50 98.4361C50.918 98.4528 63.338 98.6212 64.654 98.4361C66.02 98.2447 64.652 97.109 62.924 95.7808Z" fill="#107D9A"/>
<path d="M26.666 61.2606C32.2 61.2159 32.889 59.8286 34.693 54.0504C38.02 44.9317 53.002 56.4382 43.717 60.4318C34.432 64.4274 21.132 61.3053 26.666 61.2606Z" fill="#107D9A"/>
<path d="M83.41 1.1651C80.722 -1.08554 76.275 0.0231403 73.472 3.6404L45.082 45.5915C42.279 49.2077 42.293 48.5171 44.978 50.7657C47.663 53.0163 47.016 53.1775 49.819 49.5613L83.195 11.7902C85.998 8.17082 86.096 3.41471 83.41 1.1651ZM76.109 6.18642C76.109 6.18642 75.693 5.68408 74.31 4.53379C76.384 1.01118 80.46 1.65704 80.46 1.65704C76.596 4.03042 76.109 6.18642 76.109 6.18642Z" fill="#107D9A"/>
<path d="M96 15.3408H83.516L78.001 21.5811H94.001V71.5029H6.001V21.5811H57.191L61.418 15.3408H4C1.791 15.3408 0 17.2035 0 19.501V79.8232C0 82.1207 1.791 83.9834 4 83.9834H96C98.209 83.9834 100 82.1207 100 79.8232V19.501C100 17.2035 98.209 15.3408 96 15.3408Z" fill="#107D9A"/>
<mask id="mask0" mask-type="alpha" maskUnits="userSpaceOnUse" x="0" y="0" width="100" height="100">
<path d="M62.924 94.7292C61.192 93.4552 61.006 91.5412 61.006 91.5412L60.356 87.3862H39.642L38.99 91.5382C38.99 91.5382 38.809 93.4542 37.076 94.7282C35.344 96.0022 33.977 97.0962 35.344 97.2822C36.661 97.4602 49.084 97.2982 50 97.2822C50.918 97.2982 63.338 97.4602 64.654 97.2822C66.02 97.0982 64.652 96.0062 62.924 94.7292Z" fill="black"/>
<path d="M26.666 61.538C32.2 61.495 32.889 60.161 34.693 54.605C38.02 45.837 53.002 56.901 43.717 60.741C34.432 64.583 21.132 61.581 26.666 61.538Z" fill="black"/>
<path d="M83.41 3.75599C80.722 1.59199 76.275 2.65799 73.472 6.13599L45.082 46.472C42.279 49.949 42.293 49.285 44.978 51.447C47.663 53.611 47.016 53.766 49.819 50.289L83.195 13.972C85.998 10.492 86.096 5.91899 83.41 3.75599ZM76.109 8.58399C76.109 8.58399 75.693 8.10099 74.31 6.99499C76.384 3.60799 80.46 4.22899 80.46 4.22899C76.596 6.51099 76.109 8.58399 76.109 8.58399Z" fill="black"/>
<path d="M96 17.3862H83.516L78.001 23.3862H94.001V71.3862H6.001V23.3862H57.191L61.418 17.3862H4C1.791 17.3862 0 19.1772 0 21.3862V79.3862C0 81.5952 1.791 83.3862 4 83.3862H96C98.209 83.3862 100 81.5952 100 79.3862V21.3862C100 19.1772 98.209 17.3862 96 17.3862Z" fill="black"/>
</mask>
<g mask="url(#mask0)">
<rect x="-22" y="-68" width="138" height="170.913" fill="#2FC3EB"/>
</g>
</svg>
