<svg width="101" height="105" viewBox="0 0 101 105" fill="none" xmlns="http://www.w3.org/2000/svg">
<g clip-path="url(#clip0)">
<path d="M7.56615 38.1048C8.0918 39.9792 8.82128 41.7867 9.74385 43.4825L7.1156 46.9301C6.25739 48.0569 6.35394 49.6636 7.31942 50.6789L11.8464 55.3872C12.8227 56.4025 14.3674 56.4916 15.4509 55.599L18.7443 52.8879C20.4392 53.9033 22.2414 54.6953 24.1188 55.2532L24.6122 59.6602C24.7731 61.0883 25.9317 62.1594 27.3049 62.1594H33.7092C35.0823 62.1594 36.2409 61.0882 36.4018 59.6602L36.8738 55.4094C38.8906 54.8627 40.8216 54.0482 42.6345 52.9883L45.8206 55.6102C46.9041 56.5028 48.4489 56.4023 49.4251 55.3982L53.9521 50.6899C54.9283 49.6746 55.0141 48.068 54.1559 46.9411L51.6779 43.6721C52.7077 41.8199 53.5123 39.8452 54.0486 37.7811L57.8676 37.3237C59.2409 37.1563 60.2706 35.9514 60.2706 34.5233V27.8625C60.2706 26.4344 59.2408 25.2294 57.8676 25.062L54.1023 24.6046C53.5872 22.5629 52.815 20.6104 51.8281 18.7806L54.1453 15.7347C55.0035 14.6078 54.907 13.0012 53.9415 11.9859L49.4252 7.28879C48.449 6.27349 46.9042 6.18424 45.8207 7.07681L42.9779 9.4198C41.1328 8.29293 39.1588 7.43383 37.0885 6.85366L36.6594 3.02678C36.4985 1.59867 35.3399 0.527588 33.9668 0.527588H27.5624C26.1893 0.527588 25.0307 1.59867 24.8698 3.02678L24.4407 6.85366C22.3166 7.44499 20.2891 8.33756 18.4011 9.50905L15.451 7.07681C14.3675 6.18424 12.8228 6.28465 11.8466 7.28879L7.31953 11.9971C6.34332 13.0124 6.2575 14.619 7.1157 15.7459L9.58304 18.9926C8.59611 20.8447 7.84518 22.8195 7.35171 24.8724L3.40397 25.341C2.03084 25.5083 1.001 26.7133 1.001 28.1414V34.8022C1.001 36.2303 2.03084 37.4353 3.40397 37.6026L7.56615 38.1048ZM30.7699 20.0861C36.6056 20.0861 41.3579 25.0287 41.3579 31.0982C41.3579 37.1676 36.6056 42.1102 30.7699 42.1102C24.9342 42.1102 20.1818 37.1676 20.1818 31.0982C20.1818 25.0287 24.9341 20.0861 30.7699 20.0861Z" fill="black"/>
<path d="M94.0829 39.7457L90.7037 36.7779C89.6632 35.8631 88.1291 35.9077 87.1423 36.8784L85.2757 38.697C83.6988 37.9048 82.0253 37.347 80.2981 37.0234L79.7727 34.3457C79.5045 32.9622 78.2708 32.0027 76.9189 32.1143L72.5099 32.5048C71.1582 32.6275 70.0962 33.7767 70.0533 35.1936L69.9676 37.916C68.2725 38.5519 66.6741 39.4222 65.2151 40.5156L62.9839 38.9759C61.8466 38.1949 60.3341 38.418 59.4546 39.5003L56.601 43.0371C55.7213 44.1193 55.7642 45.7148 56.6974 46.7412L58.6499 48.9056C57.9739 50.4899 57.4912 52.1524 57.2124 53.8594L54.4232 54.4507C53.093 54.7296 52.1704 56.0127 52.2777 57.4186L52.6532 62.0041C52.7712 63.4099 53.8761 64.5145 55.2385 64.5591L58.253 64.6594C58.8003 66.1545 59.5189 67.5715 60.3877 68.8991L58.7036 71.5434C57.9527 72.726 58.1673 74.2992 59.2077 75.214L62.5869 78.1818C63.6276 79.0967 65.1615 79.0521 66.1486 78.0814L68.3584 75.9281C69.8066 76.631 71.3299 77.1554 72.8961 77.4678L73.5077 80.6141C73.7758 81.9976 75.0095 82.9571 76.3612 82.8455L80.7702 82.455C82.1219 82.3323 83.1839 81.1832 83.2268 79.7661L83.3234 76.6867C84.9325 76.0953 86.4557 75.292 87.861 74.2992L90.2963 75.9727C91.4334 76.7537 92.9459 76.5306 93.8256 75.4483L96.6792 71.9339C97.5587 70.8516 97.5158 69.2561 96.5826 68.2297L94.6194 66.0653C95.3382 64.481 95.864 62.8075 96.1641 61.0892L98.846 60.5201C100.176 60.2412 101.099 58.9581 100.992 57.5522L100.616 52.9667C100.498 51.5609 99.3931 50.4563 98.0307 50.4117L95.3381 50.3224C94.7802 48.6935 94.0293 47.1539 93.0961 45.7257L94.5656 43.4274C95.3381 42.2449 95.1236 40.6606 94.0829 39.7457ZM77.4661 66.2549C72.7031 66.679 68.4977 62.9859 68.1009 58.0322C67.6931 53.0785 71.2441 48.7048 76.007 48.292C80.77 47.868 84.9754 51.5611 85.3722 56.5147C85.78 61.4686 82.2289 65.8422 77.4661 66.2549Z" fill="black"/>
<path d="M22.9915 78.595C21.6398 78.74 20.5993 79.9226 20.5885 81.3396L20.5563 84.1624C20.5349 85.5793 21.5433 86.7843 22.895 86.9629L24.8903 87.2306C25.2228 88.4914 25.6948 89.6964 26.3063 90.8344L25.019 92.4857C24.1608 93.5901 24.2252 95.1745 25.1799 96.1898L27.0787 98.2093C28.0335 99.2246 29.5568 99.3361 30.6403 98.4659L32.2386 97.1828C33.365 97.8746 34.5558 98.4214 35.8001 98.8006L36.0147 100.943C36.1541 102.349 37.2912 103.431 38.6536 103.442L41.3678 103.475C42.7301 103.498 43.8888 102.449 44.0604 101.043L44.3072 99.0126C45.659 98.6666 46.9463 98.1423 48.1691 97.4506L49.671 98.7113C50.733 99.6039 52.2564 99.537 53.2326 98.544L55.1743 96.5692C56.1505 95.5763 56.2578 93.9919 55.4211 92.865L54.2731 91.3141C54.9811 90.0868 55.5283 88.7814 55.9038 87.4091L57.6845 87.2194C59.0362 87.0744 60.0767 85.8917 60.0875 84.4748L60.1196 81.6519C60.1412 80.2351 59.1328 79.03 57.7811 78.8515L56.0431 78.6172C55.7106 77.256 55.2172 75.9395 54.5736 74.7122L55.657 73.3287C56.5152 72.2242 56.4509 70.6399 55.4961 69.6246L53.5975 67.6051C52.6427 66.5897 51.1192 66.4781 50.0358 67.3485L48.7377 68.3861C47.5148 67.6163 46.2059 67.025 44.8329 66.6233L44.6612 64.8716C44.5217 63.4657 43.3847 62.3836 42.0222 62.3724L39.3081 62.339C37.9457 62.3167 36.7871 63.3654 36.6154 64.7712L36.4008 66.5118C34.9849 66.8911 33.6225 67.4713 32.3567 68.2299L31.0157 67.0919C29.9537 66.1993 28.4303 66.2664 27.4541 67.2593L25.5016 69.2453C24.5254 70.2382 24.4182 71.8226 25.2549 72.9494L26.4028 74.4892C25.7377 75.7164 25.212 77.0217 24.8687 78.3941L22.9915 78.595ZM40.5096 75.4039C44.4037 75.4486 47.5253 78.7846 47.4825 82.8347C47.4396 86.8847 44.232 90.1313 40.3379 90.0868C36.4438 90.0422 33.3221 86.7062 33.365 82.656C33.408 78.6061 36.6155 75.3594 40.5096 75.4039Z" fill="black"/>
</g>
<mask id="mask0" mask-type="alpha" maskUnits="userSpaceOnUse" x="0" y="4" width="100" height="100">
<g clip-path="url(#clip1)">
<path d="M6.56615 40.6386C7.0918 42.4408 7.82128 44.1787 8.74385 45.8092L6.1156 49.1241C5.25739 50.2075 5.35394 51.7523 6.31942 52.7285L10.8464 57.2555C11.8227 58.2317 13.3674 58.3175 14.4509 57.4593L17.7443 54.8525C19.4392 55.8288 21.2414 56.5903 23.1188 57.1267L23.6122 61.3641C23.7731 62.7372 24.9317 63.7671 26.3049 63.7671H32.7092C34.0823 63.7671 35.2409 62.7371 35.4018 61.3641L35.8738 57.2769C37.8906 56.7512 39.8216 55.9681 41.6345 54.949L44.8206 57.47C45.9041 58.3282 47.4489 58.2316 48.4251 57.2662L52.9521 52.7391C53.9283 51.7629 54.0141 50.2182 53.1559 49.1347L50.6779 45.9915C51.7077 44.2106 52.5123 42.312 53.0486 40.3274L56.8676 39.8875C58.2409 39.7266 59.2706 38.568 59.2706 37.1949V30.7906C59.2706 29.4174 58.2408 28.2589 56.8676 28.0979L53.1023 27.6581C52.5872 25.695 51.815 23.8177 50.8281 22.0583L53.1453 19.1297C54.0035 18.0462 53.907 16.5015 52.9415 15.5253L48.4252 11.009C47.449 10.0327 45.9042 9.94693 44.8207 10.8051L41.9779 13.0579C40.1328 11.9744 38.1588 11.1484 36.0885 10.5906L35.6594 6.91103C35.4985 5.5379 34.3399 4.50806 32.9668 4.50806H26.5624C25.1893 4.50806 24.0307 5.5379 23.8698 6.91103L23.4407 10.5906C21.3166 11.1591 19.2891 12.0173 17.4011 13.1437L14.451 10.8051C13.3675 9.94693 11.8228 10.0435 10.8466 11.009L6.31953 15.536C5.34332 16.5122 5.2575 18.057 6.1157 19.1404L8.58304 22.2622C7.59611 24.0429 6.84518 25.9417 6.35171 27.9156L2.40397 28.3661C1.03084 28.527 0.000999451 29.6856 0.000999451 31.0587V37.4631C0.000999451 38.8362 1.03084 39.9948 2.40397 40.1557L6.56615 40.6386ZM29.7699 23.3136C35.6056 23.3136 40.3579 28.0659 40.3579 33.9017C40.3579 39.7374 35.6056 44.4897 29.7699 44.4897C23.9342 44.4897 19.1818 39.7374 19.1818 33.9017C19.1818 28.0659 23.9341 23.3136 29.7699 23.3136Z" fill="black"/>
<path d="M93.0829 42.2155L89.7037 39.362C88.6632 38.4823 87.1291 38.5252 86.1423 39.4585L84.2757 41.2071C82.6988 40.4455 81.0253 39.9091 79.2981 39.598L78.7727 37.0234C78.5045 35.6931 77.2708 34.7706 75.9189 34.8779L71.5099 35.2533C70.1582 35.3713 69.0962 36.4763 69.0533 37.8387L68.9676 40.4562C67.2725 41.0677 65.6741 41.9044 64.2151 42.9557L61.9839 41.4753C60.8466 40.7244 59.3341 40.9389 58.4546 41.9795L55.601 45.3801C54.7213 46.4207 54.7642 47.9547 55.6974 48.9417L57.6499 51.0227C56.9739 52.546 56.4912 54.1445 56.2124 55.7857L53.4232 56.3543C52.093 56.6225 51.1704 57.8562 51.2777 59.2079L51.6532 63.617C51.7712 64.9686 52.8761 66.0307 54.2385 66.0736L57.253 66.17C57.8003 67.6075 58.5189 68.97 59.3877 70.2465L57.7036 72.7889C56.9527 73.926 57.1673 75.4386 58.2077 76.3183L61.5869 79.1718C62.6276 80.0515 64.1615 80.0086 65.1486 79.0753L67.3584 77.0048C68.8066 77.6807 70.3299 78.1849 71.8961 78.4852L72.5077 81.5104C72.7758 82.8406 74.0095 83.7632 75.3612 83.6559L79.7702 83.2805C81.1219 83.1625 82.1839 82.0576 82.2268 80.6951L82.3234 77.7342C83.9325 77.1657 85.4557 76.3933 86.861 75.4386L89.2963 77.0478C90.4334 77.7987 91.9459 77.5841 92.8256 76.5436L95.6792 73.1644C96.5587 72.1238 96.5158 70.5898 95.5826 69.6028L93.6194 67.5218C94.3382 65.9985 94.864 64.3894 95.1641 62.7372L97.846 62.1901C99.1762 61.9219 100.099 60.6882 99.9915 59.3365L99.6161 54.9274C99.4981 53.5758 98.3931 52.5137 97.0307 52.4708L94.3381 52.385C93.7802 50.8188 93.0293 49.3385 92.0961 47.9653L93.5656 45.7554C94.3381 44.6185 94.1236 43.0952 93.0829 42.2155ZM76.4661 67.7041C71.7031 68.1118 67.4977 64.5609 67.1009 59.798C66.6931 55.0349 70.2441 50.8296 75.007 50.4327C79.77 50.0251 83.9754 53.576 84.3722 58.3389C84.78 63.102 81.2289 67.3072 76.4661 67.7041Z" fill="black"/>
<path d="M21.9915 79.569C20.6398 79.7084 19.5992 80.8454 19.5885 82.2079L19.5563 84.922C19.5349 86.2844 20.5433 87.443 21.8949 87.6147L23.8903 87.8721C24.2228 89.0844 24.6948 90.243 25.3063 91.3372L24.019 92.9249C23.1608 93.9868 23.2251 95.5102 24.1799 96.4864L26.0787 98.4281C27.0334 99.4043 28.5567 99.5116 29.6402 98.6748L31.2385 97.4412C32.3649 98.1063 33.5558 98.632 34.8001 98.9967L35.0146 101.056C35.1541 102.408 36.2912 103.449 37.6536 103.459L40.3678 103.492C41.7301 103.513 42.8887 102.505 43.0604 101.153L43.3071 99.2005C44.6589 98.8678 45.9462 98.3638 47.169 97.6986L48.6709 98.9109C49.7329 99.7691 51.2563 99.7047 52.2326 98.7499L54.1742 96.8512C55.1504 95.8965 55.2577 94.3731 54.4211 93.2896L53.273 91.7984C53.981 90.6183 54.5282 89.3632 54.9037 88.0437L56.6845 87.8614C58.0362 87.7219 59.0766 86.5848 59.0875 85.2224L59.1195 82.5082C59.1411 81.1459 58.1327 79.9872 56.781 79.8156L55.0431 79.5903C54.7105 78.2816 54.2172 77.0157 53.5735 75.8357L54.657 74.5055C55.5152 73.4434 55.4508 71.9201 54.4961 70.9439L52.5974 69.0022C51.6426 68.0259 50.1191 67.9186 49.0357 68.7555L47.7376 69.7531C46.5148 69.0129 45.2059 68.4444 43.8329 68.0582L43.6611 66.374C43.5217 65.0222 42.3847 63.9817 41.0222 63.971L38.3081 63.9388C36.9457 63.9174 35.7871 64.9257 35.6154 66.2774L35.4008 67.951C33.9849 68.3157 32.6225 68.8736 31.3566 69.603L30.0157 68.5087C28.9537 67.6505 27.4302 67.715 26.454 68.6697L24.5016 70.5793C23.5254 71.5339 23.4181 73.0573 24.2549 74.1407L25.4027 75.6212C24.7376 76.8013 24.212 78.0563 23.8687 79.3759L21.9915 79.569ZM39.5096 76.5008C43.4037 76.5437 46.5253 79.7513 46.4825 83.6454C46.4396 87.5395 43.2319 90.6611 39.3378 90.6183C35.4437 90.5754 32.3221 87.3679 32.3649 83.4737C32.4079 79.5797 35.6155 76.458 39.5096 76.5008Z" fill="black"/>
</g>
</mask>
<g mask="url(#mask0)">
<rect y="-2" width="100" height="106" fill="#107D9A"/>
</g>
<defs>
<clipPath id="clip0">
<rect x="1" width="100" height="104.004" fill="white"/>
</clipPath>
<clipPath id="clip1">
<rect y="4" width="100" height="100" fill="white"/>
</clipPath>
</defs>
</svg>
