<svg width="100" height="100" viewBox="0 0 100 100" fill="none" xmlns="http://www.w3.org/2000/svg">
<path d="M100 67.6758C100 55.2666 92.881 44.1918 82.2189 38.8047C81.8878 62.5977 62.5977 81.8879 38.8046 82.219C44.1917 92.8811 55.2666 100 67.6758 100C73.494 100 79.1519 98.4505 84.1232 95.5063L99.8589 99.8589L95.5063 84.1233C98.4505 79.152 100 73.494 100 67.6758Z" fill="#107D9A"/>
<path d="M76.3672 38.1836C76.3672 17.1288 59.2384 0 38.1836 0C17.1288 0 0 17.1288 0 38.1836C0 45.0455 1.82648 51.7265 5.2948 57.592L0.140381 76.226L18.7752 71.0724C24.6407 74.5407 31.3217 76.3672 38.1836 76.3672C59.2384 76.3672 76.3672 59.2384 76.3672 38.1836ZM32.3242 29.2969H26.4648C26.4648 22.8348 31.7215 17.5781 38.1836 17.5781C44.6457 17.5781 49.9023 22.8348 49.9023 29.2969C49.9023 32.5768 48.5138 35.7292 46.0915 37.9448L41.1133 42.5011V47.0703H35.2539V39.9208L42.1356 33.622C43.3655 32.4966 44.043 30.9608 44.043 29.2969C44.043 26.0658 41.4146 23.4375 38.1836 23.4375C34.9525 23.4375 32.3242 26.0658 32.3242 29.2969ZM35.2539 52.9297H41.1133V58.7891H35.2539V52.9297Z" fill="#2FC3EB"/>
</svg>
