<svg width="142" height="141" viewBox="0 0 142 141" fill="none" xmlns="http://www.w3.org/2000/svg">
<circle cx="47.5" cy="81.5" r="45" stroke="black" stroke-width="5"/>
<g clip-path="url(#clip0)">
<path d="M59.8945 91.3847C57.2031 89.1021 50.6573 83.5506 47.9658 81.2679C47.3078 80.7098 46.3278 80.796 45.7697 81.4541C39.5795 88.7529 39.7812 103.009 39.7812 103.009C39.7812 103.009 53.8792 100.881 60.0694 93.5818C60.6275 92.9237 60.5527 91.9429 59.8945 91.3847Z" fill="#107D9A"/>
<path d="M60.0996 66.9733L72.0161 77.0797C72.6741 77.6378 73.6602 77.5568 74.2183 76.8987L101.506 44.7244C102.064 44.0663 101.983 43.0802 101.325 42.5221L95.3664 37.4689L89.4082 32.4157C88.7501 31.8575 87.7641 31.9386 87.2059 32.5967L59.9186 64.771C59.3605 65.4291 59.4416 66.4152 60.0996 66.9733Z" fill="#107D9A"/>
<path d="M100.133 41.5116L104.176 36.745C105.292 35.4287 105.13 33.4568 103.814 32.3405L99.047 28.2979C97.7307 27.1815 95.7588 27.3436 94.6424 28.6599L90.5999 33.4265L100.133 41.5116Z" fill="#009BCA"/>
<path d="M62.7393 85.6023C64.0556 86.7186 64.2177 88.6905 63.1013 90.0068C61.9849 91.3231 60.013 91.4852 58.6967 90.3688L49.1636 82.2837C47.8473 81.1673 47.6852 79.1955 48.8016 77.8791C49.918 76.5628 51.8898 76.4008 53.2062 77.5171L62.7393 85.6023Z" fill="#009BCA"/>
<path d="M62.7393 85.6022L57.9401 81.532L53.8975 86.2986L58.6967 90.3688C60.0129 91.485 61.985 91.3229 63.1013 90.0068C64.2177 88.6905 64.0556 86.7186 62.7393 85.6022Z" fill="#4BB9EC"/>
<path d="M66.7819 80.8357C68.0982 81.952 68.2602 83.9239 67.1439 85.2402C66.0275 86.5565 64.0556 86.7186 62.7393 85.6022L53.2062 77.5171C51.8898 76.4007 51.7278 74.4288 52.8442 73.1125C53.9605 71.7962 55.9324 71.6342 57.2487 72.7505L66.7819 80.8357Z" fill="#009BCA"/>
<path d="M66.7818 80.8356L61.9827 76.7654L57.9401 81.5319L62.7393 85.6022C64.0555 86.7184 66.0276 86.5563 67.1439 85.2402C68.2602 83.9239 68.0982 81.952 66.7818 80.8356Z" fill="#4BB9EC"/>
<path d="M70.8244 76.0691C72.1407 77.1854 72.3028 79.1573 71.1864 80.4736C70.07 81.7899 68.0982 81.952 66.7819 80.8356L57.2487 72.7505C55.9324 71.6341 55.7703 69.6622 56.8867 68.3459C58.0031 67.0296 59.975 66.8675 61.2913 67.9839L70.8244 76.0691Z" fill="#009BCA"/>
<path d="M70.8244 76.0693L66.0252 71.999L61.9827 76.7656L66.7819 80.8358C68.098 81.9521 70.0702 81.79 71.1864 80.4738C72.3028 79.1575 72.1407 77.1856 70.8244 76.0693Z" fill="#4BB9EC"/>
<path d="M53.8975 86.2986C51.5992 84.3494 49.3052 82.4039 47.9658 81.2679C47.3078 80.7098 46.3278 80.796 45.7697 81.4541C39.7369 88.5673 39.7751 102.25 39.7809 102.943L53.8975 86.2986Z" fill="#0C5265"/>
<path d="M95.3338 37.4412L89.4082 32.4157C88.7501 31.8575 87.7641 31.9386 87.2059 32.5967L59.9186 64.771C59.3605 65.4291 59.4416 66.4152 60.0996 66.9733L66.0252 71.9988L95.3338 37.4412Z" fill="#0C5265"/>
<path d="M82.0168 77.3665C81.3582 76.8079 81.2777 75.8223 81.8358 75.1642L100.027 53.7147C100.584 53.0578 100.504 52.07 99.8464 51.5124L83.1634 37.3634C82.5047 36.8048 82.4243 35.8192 82.9824 35.1611C83.5405 34.503 84.526 34.4215 85.1847 34.9801L101.868 49.1291C103.839 50.801 104.083 53.7647 102.411 55.736L84.2191 77.1855C83.661 77.8436 82.6755 77.9251 82.0168 77.3665Z" fill="black"/>
<path d="M103.814 32.3405L101.398 30.2915L95.3338 37.4414L100.133 41.5116L104.176 36.745C105.292 35.4287 105.13 33.4568 103.814 32.3405Z" fill="#4BB9EC"/>
<path d="M36.5682 104.382C36.0101 105.04 36.0905 106.026 36.7492 106.584C37.4079 107.143 38.3934 107.061 38.9515 106.403L42.2252 102.543L39.8419 100.522L36.5682 104.382Z" fill="#5C546A"/>
</g>
<defs>
<clipPath id="clip0">
<rect x="65.681" width="100" height="100" transform="rotate(40.3015 65.681 0)" fill="white"/>
</clipPath>
</defs>
</svg>
