<svg width="100" height="100" viewBox="0 0 100 100" fill="none" xmlns="http://www.w3.org/2000/svg">
<g clip-path="url(#clip0)">
<path d="M27.44 50.0539H21.9651V50.0102C21.9651 34.7602 34.1339 21.9286 49.6528 22.0007C57.2185 22.0349 64.1687 25.0914 69.1216 30.0884L78.156 21.3728C70.8622 14.0165 60.784 9.46973 49.6528 9.46973C27.4089 9.46973 9.37757 27.6325 9.34611 50.048H3.80865C0.414861 50.048 -0.972649 52.3168 0.724245 55.095L12.5399 66.8075C14.8836 69.1512 16.2931 69.2232 18.7087 66.8075L30.5244 55.095C32.2213 52.3196 30.8307 50.0539 27.44 50.0539ZM99.2749 45.179L87.4592 33.4912C85.0498 31.0819 83.5592 31.2256 81.2935 33.4912L69.4778 45.179C67.7809 47.9508 69.1653 50.2196 72.5591 50.2196H78.0249C77.9375 65.3697 65.8093 78.0887 50.3435 78.0167C42.7809 77.9856 35.8339 74.9354 30.8747 69.9416L21.8403 78.6449C29.1373 85.9887 39.2155 90.5294 50.3435 90.5294C72.5185 90.5294 90.5002 72.4981 90.6439 50.2228H96.1908C99.5874 50.2196 100.972 47.9477 99.2749 45.179Z" fill="#2FC3EB"/>
</g>
<defs>
<clipPath id="clip0">
<rect width="100" height="100" fill="white"/>
</clipPath>
</defs>
</svg>
