<svg width="100" height="100" viewBox="0 0 100 100" fill="none" xmlns="http://www.w3.org/2000/svg">
<path d="M95 49.9998H93.3333V14.9998C93.3279 10.3998 89.6 6.67192 85 6.6665H15C10.4 6.67192 6.67208 10.3998 6.66667 14.9998V39.9998H5C2.23854 39.9998 0 42.2384 0 44.9998V88.3332C0 91.0946 2.23854 93.3332 5 93.3332H68.3333C69.2537 93.3332 70 92.5869 70 91.6665C69.9946 87.0665 66.2667 83.3386 61.6667 83.3332H56.6667V73.3332H76.6667V88.3332C76.6667 91.0946 78.9052 93.3332 81.6667 93.3332H95C97.7615 93.3332 100 91.0946 100 88.3332V54.9998C100 52.2384 97.7615 49.9998 95 49.9998ZM36.6667 88.3332C36.6667 89.2536 35.9204 89.9998 35 89.9998H5C4.07958 89.9998 3.33333 89.2536 3.33333 88.3332V86.6665H36.6667V88.3332ZM36.6667 83.3332H3.33333V44.9998C3.33333 44.0794 4.07958 43.3332 5 43.3332H35C35.9204 43.3332 36.6667 44.0794 36.6667 44.9998V83.3332ZM61.6667 86.6665C63.785 86.669 65.6727 88.0036 66.3817 89.9998H39.6933C39.8908 89.4661 39.9944 88.9023 40 88.3332V86.6665H61.6667ZM40 83.3332V73.3332H43.3333V83.3332H40ZM46.6667 83.3332V73.3332H53.3333V83.3332H46.6667ZM76.6667 69.9998H40V59.9998H76.6667V69.9998ZM76.6667 54.9998V56.6665H40V44.9998C39.9944 44.209 39.7988 43.4311 39.43 42.7315C39.455 42.7082 39.4883 42.7015 39.5117 42.6765L56.0117 26.1765C56.6512 25.5144 56.6329 24.4592 55.9708 23.8198C55.325 23.1961 54.301 23.1961 53.655 23.8198L37.155 40.3198C37.115 40.3615 37.0983 40.4148 37.0633 40.4582C36.4167 40.1582 35.7127 40.0019 35 39.9998H10V14.9998C10 12.2384 12.2385 9.99984 15 9.99984H85C87.7615 9.99984 90 12.2384 90 14.9998V49.9998H81.6667C78.9052 49.9998 76.6667 52.2384 76.6667 54.9998ZM96.6667 88.3332C96.6667 89.2536 95.9204 89.9998 95 89.9998H81.6667C80.7462 89.9998 80 89.2536 80 88.3332V86.6665H96.6667V88.3332ZM96.6667 83.3332H80V54.9998C80 54.0794 80.7462 53.3332 81.6667 53.3332H95C95.9204 53.3332 96.6667 54.0794 96.6667 54.9998V83.3332Z" fill="#107D9A"/>
<path d="M66.1375 23.8218C65.4916 23.1981 64.4677 23.1981 63.8216 23.8218L47.3217 40.3218C46.6596 40.9612 46.6412 42.0164 47.2806 42.6785C47.92 43.3406 48.9752 43.3589 49.6373 42.7195C49.6512 42.7062 49.6648 42.6924 49.6783 42.6785L66.1783 26.1785C66.8179 25.5164 66.7996 24.4612 66.1375 23.8218Z" fill="#107D9A"/>
<path d="M50.0334 63.3335H50.0167C49.0963 63.3381 48.3538 64.0881 48.3584 65.0085C48.3629 65.9289 49.1129 66.6714 50.0334 66.6668C50.9538 66.6668 51.7 65.9206 51.7 65.0002C51.7 64.0797 50.9538 63.3335 50.0334 63.3335Z" fill="#107D9A"/>
<path d="M53.3333 13.3335H46.6667C45.7462 13.3335 45 14.0797 45 15.0002C45 15.9206 45.7462 16.6668 46.6667 16.6668H53.3333C54.2537 16.6668 55 15.9206 55 15.0002C55 14.0797 54.2537 13.3335 53.3333 13.3335Z" fill="#107D9A"/>
</svg>
