<svg width="136" height="136" viewBox="0 0 136 136" fill="none" xmlns="http://www.w3.org/2000/svg">
<g clip-path="url(#clip0)">
<path d="M128.549 60.7499C126.368 57.3077 126.636 52.8572 129.213 49.7022C139.849 36.6702 137.903 17.4871 124.864 6.85598C111.826 -3.77519 92.6332 -1.82977 81.9968 11.2023C77.3174 17.1473 69.5731 19.7793 62.2375 17.9174C46.3996 13.5253 29.49 19.3055 19.6608 32.4703C9.83036 45.6363 9.0999 63.4838 17.8197 77.4085H32.357C38.9048 77.4062 45.4081 76.3499 51.6205 74.2821L77.4136 65.6902V79.7521H79.7584C83.6432 79.7521 86.7929 82.9003 86.7929 86.7831V96.1578C86.7929 100.041 83.6432 103.189 79.7584 103.189H77.4136V117.251L51.6205 108.659C48.3712 107.583 45.0371 106.782 41.655 106.264C48.9551 123.224 65.1479 134.667 83.5802 135.891C102.014 137.116 119.578 127.915 129.059 112.068C138.542 96.2219 138.341 76.4014 128.542 60.7499H128.549Z" fill="#2FC3EB"/>
<path d="M58.655 63.3463C61.2448 63.3463 63.3446 61.2475 63.3446 58.6589V46.9406C63.3446 44.3521 61.2448 42.2533 58.655 42.2533H56.3102C53.7192 42.2533 51.6205 40.1545 51.6205 37.566V30.535C51.6205 27.9464 49.5207 25.8477 46.9308 25.8477C44.3399 25.8477 42.2412 27.9464 42.2412 30.535V37.566C42.2412 40.1545 40.1414 42.2533 37.5515 42.2533H35.2067V63.3463H58.655Z" fill="#FFF5E0"/>
<path d="M79.7584 103.189C83.6432 103.189 86.7929 100.04 86.7929 96.1576V86.7829C86.7929 82.9001 83.6432 79.752 79.7584 79.752H77.4136V103.189H79.7584Z" fill="#FFB41F"/>
<path d="M105.552 49.2843C115.911 49.2843 124.31 40.8903 124.31 30.535C124.31 20.1796 115.911 11.7856 105.552 11.7856C95.191 11.7856 86.7929 20.1796 86.7929 30.535C86.7929 40.8903 95.191 49.2843 105.552 49.2843Z" fill="#FFF5E0"/>
<path d="M100.862 21.1606V39.91L114.931 30.5353L100.862 21.1606Z" fill="#1CC8EB"/>
<path d="M35.2067 63.3463V39.9097H25.8274V65.69H35.2067V63.3463Z" fill="#1CC8EB"/>
<path d="M118.363 82.883L114.527 85.4373L110.693 82.883C108.833 81.6437 106.355 81.8886 104.775 83.4689L103.776 84.468C101.944 86.2978 101.944 89.2674 103.776 91.0973L114.527 101.843L125.28 91.0973C127.113 89.2674 127.113 86.2978 125.28 84.468L124.282 83.4689C122.7 81.8886 120.224 81.6437 118.363 82.883Z" fill="#E32210"/>
<path d="M14.1033 105.532L16.8339 133.656C16.8339 134.95 17.8838 136 19.1787 136H32.8619C33.5454 136 34.1946 135.701 34.6399 135.182C35.0853 134.663 35.2823 133.975 35.1781 133.3L28.1722 105.532H14.1033Z" fill="#8C8C8C"/>
<path d="M14.1033 105.532V77.4082C6.33258 77.4082 0.0342865 83.7045 0.0342865 91.4702C0.0342865 99.2359 6.33258 105.532 14.1033 105.532Z" fill="#8C8C8C"/>
<path d="M23.4826 105.532V77.4082H14.1033V105.532H23.4826Z" fill="#FFB41F"/>
<path d="M51.6205 74.2818C45.4058 76.3509 38.898 77.4071 32.3478 77.4083H23.4826V105.532H32.3478C38.8968 105.554 45.4001 106.609 51.6205 108.659L77.4136 117.251V65.6899L51.6205 74.2818Z" fill="#D9D9D9"/>
<path d="M30.5377 114.907L28.1722 105.532H14.1033L30.5377 114.907Z" fill="#7A7A7A"/>
<path d="M105.552 46.9408C95.6547 46.9293 87.4696 39.2357 86.8513 29.3633C86.8273 29.7524 86.7929 30.1392 86.7929 30.5351C86.7929 40.8905 95.191 49.2844 105.552 49.2844C115.911 49.2844 124.31 40.8905 124.31 30.5351C124.31 30.1392 124.275 29.7524 124.251 29.3633C123.632 39.2357 115.447 46.9293 105.552 46.9408Z" fill="#E6E6E6"/>
<path d="M35.2067 63.3462H58.655C61.2448 63.3462 63.3446 61.2475 63.3446 58.6589V51.6279C60.4651 57.3829 54.6053 61.0426 48.1685 61.1079L35.2067 61.2372V63.3462Z" fill="#E6E6E6"/>
<path d="M25.8274 61.0029H35.2067V65.6903H25.8274V61.0029Z" fill="#1BC1E3"/>
<path d="M114.527 101.843L125.28 91.0973C127.113 89.2674 127.113 86.2978 125.28 84.468L124.282 83.4689C122.895 82.0923 120.801 81.7192 119.024 82.5317C119.533 82.7594 119.998 83.0776 120.396 83.4689L121.395 84.468C123.789 86.8608 122.315 90.0925 120.704 92.4522C119.706 93.9056 118.755 95.3932 117.782 96.866C116.854 98.6226 115.764 100.289 114.527 101.843Z" fill="#C91E0E"/>
<path d="M87.4316 67.5358L88.6395 62.71C88.9543 61.4535 90.2275 60.6902 91.4824 61.0049C92.7384 61.3185 93.5009 62.591 93.1872 63.8464L91.9781 68.6733C91.6644 69.9298 90.3912 70.6931 89.1352 70.3784C87.8804 70.0649 87.1167 68.7923 87.4316 67.5358Z" fill="#FFB41F"/>
<path d="M94.8773 71.92L100.062 69.3291C101.219 68.7501 102.629 69.2193 103.207 70.3774C103.786 71.5355 103.317 72.943 102.158 73.5221L96.9737 76.1129C95.8161 76.692 94.4067 76.2228 93.8285 75.0647C93.2492 73.9066 93.7186 72.499 94.8773 71.92Z" fill="#FFB41F"/>
<path d="M89.1354 114.908C90.3903 114.595 91.6635 115.358 91.9772 116.613L93.1851 121.44C93.4988 122.697 92.7351 123.968 91.4803 124.283C90.2243 124.596 88.9511 123.832 88.6374 122.577L87.4295 117.75C87.1158 116.494 87.8795 115.222 89.1354 114.908Z" fill="#FFB41F"/>
<path d="M93.8274 110.218C94.4067 109.061 95.815 108.592 96.9737 109.17L102.158 111.761C103.317 112.34 103.786 113.748 103.207 114.906C102.627 116.064 101.219 116.533 100.06 115.954L94.8762 113.363C93.7186 112.784 93.2492 111.377 93.8274 110.218Z" fill="#FFB41F"/>
<path d="M4.72394 61.0028H0.0342865C0.0342865 26.317 20.6992 4.75488 53.9653 4.75488V9.44221C23.5925 9.44221 4.72394 29.1997 4.72394 61.0028Z" fill="#1CC8EB"/>
<path d="M32.8619 93.814H37.5515C38.8464 93.814 39.8964 94.8633 39.8964 96.1576C39.8964 97.4519 38.8464 98.5013 37.5515 98.5013H32.8619C31.5658 98.5013 30.517 97.4519 30.517 96.1576C30.517 94.8633 31.5658 93.814 32.8619 93.814Z" fill="#8C8C8C"/>
<path d="M32.8619 84.4395H37.5515C38.8464 84.4395 39.8964 85.4888 39.8964 86.7831C39.8964 88.0774 38.8464 89.1268 37.5515 89.1268H32.8619C31.5658 89.1268 30.517 88.0774 30.517 86.7831C30.517 85.4888 31.5658 84.4395 32.8619 84.4395Z" fill="#8C8C8C"/>
<path d="M77.4136 79.752H79.7584V103.189H77.4136V79.752Z" fill="#DE9A10"/>
</g>
<defs>
<clipPath id="clip0">
<rect width="136" height="136" fill="white"/>
</clipPath>
</defs>
</svg>
